<?xml version="1.0" encoding="UTF-8"?>
<svg width="50px" height="50px" viewBox="0 0 50 50" version="1.1" xmlns="http://www.w3.org/2000/svg">
    <g stroke="none" stroke-width="1" fill="none" fill-rule="evenodd">
        <path d="M25,0 C38.8071187,0 50,11.1928813 50,25 C50,38.8071187 38.8071187,50 25,50 C11.1928813,50 0,38.8071187 0,25 C0,11.1928813 11.1928813,0 25,0 Z" fill="#20C997"/>
        <path d="M37,18 L33,18 L33,14 C33,12.8954305 32.1045695,12 31,12 L19,12 C17.8954305,12 17,12.8954305 17,14 L17,18 L13,18 C11.8954305,18 11,18.8954305 11,20 L11,36 C11,37.1045695 11.8954305,38 13,38 L37,38 C38.1045695,38 39,37.1045695 39,36 L39,20 C39,18.8954305 38.1045695,18 37,18 Z M19,14 L31,14 L31,18 L19,18 L19,14 Z M37,36 L13,36 L13,20 L37,20 L37,36 Z M25,22 C21.6862915,22 19,24.6862915 19,28 C19,31.3137085 21.6862915,34 25,34 C28.3137085,34 31,31.3137085 31,28 C31,24.6862915 28.3137085,22 25,22 Z M26,28.5 L26,25 L24,25 L24,28.5 L21.5,28.5 L21.5,30.5 L24,30.5 L24,34 L26,34 L26,30.5 L28.5,30.5 L28.5,28.5 L26,28.5 Z" fill="#FFFFFF" fill-rule="nonzero"/>
    </g>
</svg>