<?xml version="1.0" encoding="UTF-8"?>
<svg width="50px" height="50px" viewBox="0 0 50 50" version="1.1" xmlns="http://www.w3.org/2000/svg">
    <g stroke="none" stroke-width="1" fill="none" fill-rule="evenodd">
        <path d="M25,0 C38.8071187,0 50,11.1928813 50,25 C50,38.8071187 38.8071187,50 25,50 C11.1928813,50 0,38.8071187 0,25 C0,11.1928813 11.1928813,0 25,0 Z" fill="#DC3545"/>
        <path d="M35,15 L15,15 C13.8954305,15 13,15.8954305 13,17 L13,37 C13,38.1045695 13.8954305,39 15,39 L35,39 C36.1045695,39 37,38.1045695 37,37 L37,17 C37,15.8954305 36.1045695,15 35,15 Z M23,33 L19,33 L19,29 L23,29 L23,33 Z M23,27 L19,27 L19,23 L23,23 L23,27 Z M31,33 L27,33 L27,29 L31,29 L31,33 Z M31,27 L27,27 L27,23 L31,23 L31,27 Z M35,21 L15,21 L15,17 L35,17 L35,21 Z" fill="#FFFFFF" fill-rule="nonzero"/>
    </g>
</svg>